<?xml version="1.0" encoding="utf-8"?>
<!-- Generator: Adobe Illustrator 16.0.0, SVG Export Plug-In . SVG Version: 6.00 Build 0)  -->
<!DOCTYPE svg PUBLIC "-//W3C//DTD SVG 1.1//EN" "http://www.w3.org/Graphics/SVG/1.1/DTD/svg11.dtd">
<svg version="1.1" id="Capa_1" xmlns="http://www.w3.org/2000/svg" xmlns:xlink="http://www.w3.org/1999/xlink" x="0px" y="0px"
	 width="16px" height="64px" viewBox="0 0 16 64" enable-background="new 0 0 16 64" xml:space="preserve">
<path fill="#FFFFFF" d="M7.999,32.02L7.999,32.02c-4.424,0-8.01-3.586-8.01-8.01s3.585-8.009,8.01-8.009
	c4.423,0,8.009,3.585,8.009,8.009S12.422,32.02,7.999,32.02z M7.999,31.292c4.021,0,7.281-3.26,7.281-7.281s-3.26-7.281-7.281-7.281
	s-7.282,3.26-7.282,7.281S3.978,31.292,7.999,31.292L7.999,31.292z M7.999,29.108L7.999,29.108c-2.815,0-5.097-2.283-5.097-5.098
	s2.282-5.098,5.097-5.098c2.813,0,5.097,2.283,5.097,5.098S10.812,29.108,7.999,29.108z M7.999,28.378
	c2.412,0,4.368-1.956,4.368-4.368s-1.956-4.368-4.368-4.368c-2.413,0-4.369,1.956-4.369,4.368S5.586,28.378,7.999,28.378
	L7.999,28.378z M7.999,26.195L7.999,26.195c-1.208,0-2.186-0.978-2.186-2.185s0.978-2.185,2.186-2.185
	c1.207,0,2.185,0.978,2.185,2.185S9.206,26.195,7.999,26.195z M7.999,25.467c0.804,0,1.456-0.652,1.456-1.457
	s-0.652-1.457-1.456-1.457c-0.805,0-1.457,0.652-1.457,1.457S7.194,25.467,7.999,25.467L7.999,25.467z"/>
<path fill="#FFFFFF" d="M9.788,32.036h0.297l3.549,4.142v10.653c0,0.647-0.528,1.179-1.182,1.179H3.575
	c-0.655,0-1.182-0.531-1.182-1.188V33.225c0-0.656,0.531-1.188,1.185-1.188L9.788,32.036L9.788,32.036z M9.493,32.627H3.574
	c-0.326,0-0.589,0.27-0.589,0.59v13.612c0,0.325,0.268,0.588,0.591,0.588h8.874c0.326,0,0.592-0.263,0.592-0.588V36.769h-2.368
	c-0.652,0-1.181-0.524-1.181-1.187V32.627L9.493,32.627z M10.085,32.924v2.656c0,0.33,0.267,0.598,0.589,0.598h2.191L10.085,32.924z
	 M4.168,36.178v0.591H8.31v-0.591H4.168z M4.168,34.402v0.592H8.31v-0.592H4.168z M4.168,37.952v0.592h7.691v-0.592H4.168z
	 M4.168,39.728v0.591h7.691v-0.591H4.168z M4.168,41.502v0.592h7.691v-0.592H4.168z M4.168,43.276v0.592h7.691v-0.592H4.168z
	 M4.168,45.052v0.591h7.691v-0.591H4.168z"/>
<path fill="#FFFFFF" d="M10.449,10.081H5.52l1.327,1.17l1.341,0.006l-1.004,0.006h1.998l0.012-0.01H9.135l1.312-1.172H10.449z
	 M11.111,9.489l1.918-1.716V2.986c0-0.329-0.27-0.598-0.593-0.598H3.562c-0.326,0-0.59,0.263-0.59,0.594v4.849l1.876,1.658H11.111
	L11.111,9.489z M5.983,1.797L8,0.022l2.016,1.774h2.423c0.656,0,1.183,0.529,1.183,1.184v1.987l1.774,1.562v8.287
	c0,0.65-0.532,1.179-1.187,1.179H1.79c-0.659,0-1.186-0.527-1.186-1.179V6.529l1.775-1.562V2.98c0-0.657,0.529-1.184,1.181-1.184
	H5.983L5.983,1.797z M9.142,1.797L8,0.792L6.86,1.797H9.142z M13.621,5.747v1.571l0.888-0.789L13.621,5.747z M2.38,7.318V5.747
	L1.492,6.529L2.38,7.318z M6.226,11.854l-4.141,3.551h11.833l-4.142-3.551H6.226z M14.618,15.242L14.618,15.242L14.618,15.242
	c0.113-0.108,0.187-0.262,0.187-0.429V7.121l-4.732,4.152L14.618,15.242z M1.383,15.242l4.546-3.969L1.198,7.121v7.692
	C1.198,14.98,1.269,15.134,1.383,15.242L1.383,15.242L1.383,15.242z M4.155,4.164v0.592h7.69V4.164H4.155z M4.155,5.938v0.592h7.69
	V5.938H4.155z M4.155,7.713v0.593h7.69V7.713H4.155z"/>
<path fill="#FFFFFF" d="M7.717,63.445H3.562c-0.324,0-0.594-0.265-0.594-0.592V49.195c0-0.32,0.265-0.59,0.592-0.59h5.938v2.964
	c0,0.665,0.53,1.19,1.187,1.19h2.376v10.096c0,0.326-0.267,0.59-0.595,0.59H8.31v-5.937l1.928,1.929l0.447-0.444l-2.671-2.671
	l-2.671,2.671l0.445,0.444l1.929-1.929V63.445L7.717,63.445z M9.794,48.011h-6.23c-0.656,0-1.189,0.532-1.189,1.191v13.644
	c0,0.66,0.529,1.191,1.185,1.191h8.909c0.652,0,1.184-0.531,1.184-1.182v-10.69l-3.561-4.155L9.794,48.011L9.794,48.011z
	 M10.092,48.9l2.791,3.266h-2.198c-0.326,0-0.593-0.269-0.593-0.599V48.9z"/>
</svg>
