<?xml version="1.0" encoding="utf-8"?>
<!-- Generator: Adobe Illustrator 16.0.0, SVG Export Plug-In . SVG Version: 6.00 Build 0)  -->
<!DOCTYPE svg PUBLIC "-//W3C//DTD SVG 1.1//EN" "http://www.w3.org/Graphics/SVG/1.1/DTD/svg11.dtd">
<svg version="1.1" id="Capa_1" xmlns="http://www.w3.org/2000/svg" xmlns:xlink="http://www.w3.org/1999/xlink" x="0px" y="0px"
	 width="32px" height="32px" viewBox="0 0 32 32" enable-background="new 0 0 32 32" xml:space="preserve">
<rect width="32" height="32"/>
<path fill="#FFFFFF" d="M11.353,18.505h4.915v0.421c0,0.078,0.062,0.141,0.14,0.141s0.14-0.062,0.14-0.141v-0.421h4.915
	c0.232,0,0.422-0.189,0.422-0.421v-6.178c0-0.232-0.189-0.421-0.422-0.421H11.353c-0.232,0-0.421,0.189-0.421,0.421v6.178
	C10.932,18.315,11.121,18.505,11.353,18.505z M11.212,11.906c0-0.078,0.063-0.14,0.141-0.14h10.109c0.078,0,0.14,0.062,0.14,0.14
	v6.178c0,0.077-0.063,0.14-0.14,0.14H11.353c-0.078,0-0.141-0.063-0.141-0.14V11.906z M11.914,17.662h8.985
	c0.078,0,0.142-0.063,0.142-0.139v-5.056c0-0.078-0.065-0.14-0.142-0.14h-8.985c-0.078,0-0.14,0.062-0.14,0.14v5.056
	C11.774,17.599,11.837,17.662,11.914,17.662z M12.054,12.608h8.706v4.775h-8.706V12.608z M14.863,19.348
	c-0.321,0-0.562,0.24-0.562,0.561v0.422c0,0.077,0.064,0.141,0.141,0.141h3.932c0.078,0,0.139-0.064,0.139-0.141v-0.399
	c0-0.326-0.245-0.583-0.559-0.583H14.863L14.863,19.348z M18.232,19.93v0.26h-3.651v-0.281c0-0.164,0.115-0.281,0.28-0.281h3.089
	C18.111,19.627,18.232,19.758,18.232,19.93z"/>
</svg>
