<?xml version="1.0" encoding="utf-8"?>
<!-- Generator: Adobe Illustrator 16.0.0, SVG Export Plug-In . SVG Version: 6.00 Build 0)  -->
<!DOCTYPE svg PUBLIC "-//W3C//DTD SVG 1.1//EN" "http://www.w3.org/Graphics/SVG/1.1/DTD/svg11.dtd">
<svg version="1.1" id="Capa_1" xmlns="http://www.w3.org/2000/svg" xmlns:xlink="http://www.w3.org/1999/xlink" x="0px" y="0px"
	 width="32px" height="32px" viewBox="0 0 32 32" enable-background="new 0 0 32 32" xml:space="preserve">
<title>pencil</title>
<path d="M16.021,6c0.276,0,0.5-0.224,0.5-0.5V4h0.486c0.275,0,0.5-0.224,0.5-0.5v-3c0-0.276-0.225-0.5-0.5-0.5h-2
	c-0.276,0-0.5,0.224-0.5,0.5v3c0,0.276,0.224,0.5,0.5,0.5h0.514v1.5C15.521,5.776,15.744,6,16.021,6z M15.507,1h1v2h-1V1z
	 M4.775,31.816c0.074,0.039,0.153,0.059,0.232,0.059c0.18,0,0.354-0.098,0.442-0.268l4.292-8.174c1.925,0.967,4.059,1.49,6.28,1.49
	c2.213,0,4.344-0.521,6.264-1.482l4.279,8.166c0.09,0.17,0.264,0.268,0.441,0.268c0.078,0,0.158-0.02,0.232-0.057
	c0.244-0.129,0.34-0.432,0.211-0.676l-4.287-8.186c0.99-0.59,1.922-1.292,2.758-2.128c0.975-0.976,0.975-2.562,0-3.535
	c-0.945-0.944-2.594-0.942-3.535,0c-0.473,0.474-0.994,0.88-1.545,1.229l-2.357-4.5c0.912-0.729,1.51-1.837,1.51-3.093
	c0-2.19-1.781-3.973-3.973-3.973c-2.191,0-3.97,1.783-3.97,3.974c0,1.255,0.596,2.362,1.507,3.091l-2.363,4.498
	c-0.548-0.35-1.066-0.754-1.536-1.225c-0.945-0.945-2.594-0.943-3.535,0c-0.975,0.975-0.975,2.561,0,3.535
	c0.832,0.832,1.759,1.531,2.745,2.12l-4.302,8.192C4.437,31.387,4.53,31.689,4.775,31.816z M7.889,17.562
	c0.401,0,0.778,0.155,1.062,0.438c1.886,1.886,4.396,2.924,7.07,2.924c2.674,0,5.186-1.038,7.073-2.924
	c0.566-0.567,1.555-0.565,2.121,0c0.584,0.585,0.584,1.536,0,2.121c-2.453,2.451-5.719,3.802-9.194,3.802
	c-3.477,0-6.74-1.351-9.191-3.802c-0.585-0.585-0.585-1.536,0-2.121C7.112,17.719,7.488,17.562,7.889,17.562z M13.049,10.931
	c0-1.639,1.333-2.973,2.972-2.973c1.639,0,2.973,1.334,2.973,2.973c0,1.639-1.334,2.973-2.973,2.973
	C14.382,13.904,13.049,12.569,13.049,10.931z M14.406,14.553c0.494,0.221,1.039,0.351,1.615,0.351c0.575,0,1.118-0.128,1.61-0.348
	l2.336,4.458c-1.215,0.592-2.553,0.913-3.946,0.913c-1.396,0-2.738-0.323-3.954-0.918L14.406,14.553z"/>
</svg>
