<?xml version="1.0" encoding="utf-8"?>
<!-- Generator: Adobe Illustrator 16.0.0, SVG Export Plug-In . SVG Version: 6.00 Build 0)  -->
<!DOCTYPE svg PUBLIC "-//W3C//DTD SVG 1.1//EN" "http://www.w3.org/Graphics/SVG/1.1/DTD/svg11.dtd">
<svg version="1.1" id="Capa_1" xmlns="http://www.w3.org/2000/svg" xmlns:xlink="http://www.w3.org/1999/xlink" x="0px" y="0px"
	 width="32px" height="32px" viewBox="0 0 32 32" enable-background="new 0 0 32 32" xml:space="preserve">
<rect width="32" height="32"/>
<path fill="#FFFFFF" d="M6.031,25.99c0,0.18,0.145,0.323,0.322,0.323h20.107c0.043,0,0.086-0.008,0.127-0.025
	c0.037-0.016,0.074-0.039,0.102-0.069c0,0,0.002,0,0.002-0.001c0.004-0.002,0.004-0.007,0.006-0.009
	c0.033-0.035,0.055-0.078,0.068-0.125c0.006-0.013,0.008-0.029,0.012-0.044c0.002-0.017,0.008-0.032,0.008-0.048
	c0-0.024-0.008-0.047-0.014-0.071c-0.002-0.01,0.002-0.019-0.002-0.027l-2.043-6.279c-0.016-0.049-0.043-0.094-0.078-0.128
	L13.585,8.421c-0.012-0.019-0.021-0.038-0.036-0.054l-2.416-2.417c-0.392-0.392-1.031-0.392-1.424,0L6.326,9.335
	c-0.189,0.19-0.295,0.442-0.295,0.711c0,0.269,0.105,0.522,0.295,0.712l2.361,2.363c0.013,0.018,0.021,0.037,0.037,0.053
	L19.77,24.295c0.037,0.038,0.084,0.066,0.137,0.082l4.34,1.292H6.354C6.176,25.668,6.031,25.812,6.031,25.99z M10.143,12.213
	l10.139,10.009l-0.371,1.294L9.409,12.947L10.143,12.213z M20.777,21.804L10.6,11.757l1.574-1.575l10.088,10.113v1.509H20.777z
	 M22.664,19.784L12.631,9.725l0.672-0.671L23.779,19.53L22.664,19.784z M20.889,22.45h1.695c0.18,0,0.324-0.146,0.324-0.323v-1.735
	l1.297-0.295l1.76,5.41l-5.486-1.635L20.889,22.45z M6.677,10.046c0-0.096,0.038-0.187,0.106-0.254l3.383-3.384
	c0.141-0.14,0.368-0.141,0.51,0l2.18,2.179L8.963,12.48l-2.18-2.18C6.715,10.233,6.677,10.142,6.677,10.046z"/>
</svg>
