<?xml version="1.0" encoding="utf-8"?>
<!-- Generator: Adobe Illustrator 16.0.0, SVG Export Plug-In . SVG Version: 6.00 Build 0)  -->
<!DOCTYPE svg PUBLIC "-//W3C//DTD SVG 1.1//EN" "http://www.w3.org/Graphics/SVG/1.1/DTD/svg11.dtd">
<svg version="1.1" id="Capa_1" xmlns="http://www.w3.org/2000/svg" xmlns:xlink="http://www.w3.org/1999/xlink" x="0px" y="0px"
	 width="32px" height="32px" viewBox="0 0 32 32" enable-background="new 0 0 32 32" xml:space="preserve">
<rect fill="#F6FAF9" width="32" height="32"/>
<path d="M11.37,18.493h4.928v0.423c0,0.078,0.063,0.14,0.14,0.14c0.078,0,0.14-0.062,0.14-0.14v-0.423h4.926
	c0.233,0,0.424-0.189,0.424-0.421v-6.194c0-0.232-0.19-0.422-0.424-0.422H11.37c-0.232,0-0.422,0.189-0.422,0.422v6.194
	C10.948,18.304,11.139,18.493,11.37,18.493z M11.23,11.878c0-0.078,0.063-0.141,0.14-0.141h10.134c0.078,0,0.141,0.063,0.141,0.141
	v6.194c0,0.076-0.064,0.139-0.141,0.139H11.37c-0.077,0-0.14-0.064-0.14-0.139V11.878z M11.933,17.648h9.008
	c0.077,0,0.141-0.062,0.141-0.141v-5.067c0-0.079-0.065-0.141-0.141-0.141h-9.008c-0.078,0-0.141,0.064-0.141,0.141v5.067
	C11.792,17.586,11.855,17.648,11.933,17.648z M12.074,12.582h8.727v4.787h-8.727V12.582z M14.889,19.336
	c-0.32,0-0.562,0.244-0.562,0.565v0.423c0,0.076,0.063,0.141,0.141,0.141h3.941c0.079,0,0.14-0.064,0.14-0.141v-0.402
	c0-0.326-0.246-0.586-0.562-0.586H14.889L14.889,19.336z M18.268,19.921v0.261h-3.659v-0.28c0-0.167,0.115-0.281,0.279-0.281h3.097
	C18.147,19.62,18.268,19.748,18.268,19.921z"/>
</svg>
