<?xml version="1.0" encoding="utf-8"?>
<!-- Generator: Adobe Illustrator 16.0.0, SVG Export Plug-In . SVG Version: 6.00 Build 0)  -->
<!DOCTYPE svg PUBLIC "-//W3C//DTD SVG 1.1//EN" "http://www.w3.org/Graphics/SVG/1.1/DTD/svg11.dtd">
<svg version="1.1" id="Capa_1" xmlns="http://www.w3.org/2000/svg" xmlns:xlink="http://www.w3.org/1999/xlink" x="0px" y="0px"
	 width="32px" height="32px" viewBox="0 0 32 32" enable-background="new 0 0 32 32" xml:space="preserve">
<rect width="32" height="32"/>
<path fill="#FFFFFF" d="M11.892,20.339c0,0.078,0.063,0.14,0.14,0.14h8.751c0.019,0,0.037-0.003,0.055-0.011
	c0.017-0.007,0.032-0.017,0.045-0.029l0,0c0.002-0.001,0.002-0.004,0.003-0.005c0.015-0.015,0.023-0.033,0.03-0.054
	c0.002-0.006,0.003-0.013,0.005-0.02c0.001-0.007,0.003-0.014,0.003-0.021c0-0.011-0.003-0.021-0.006-0.031
	c-0.001-0.004,0.001-0.008-0.001-0.012l-0.889-2.732c-0.008-0.021-0.019-0.041-0.034-0.056l-4.814-4.816
	c-0.005-0.008-0.009-0.017-0.016-0.023l-1.052-1.052c-0.17-0.171-0.449-0.171-0.62,0l-1.472,1.473
	c-0.082,0.083-0.128,0.192-0.128,0.309s0.046,0.227,0.128,0.31l1.027,1.028c0.006,0.008,0.009,0.016,0.017,0.023l4.807,4.84
	c0.016,0.016,0.036,0.028,0.06,0.035l1.889,0.562h-7.787C11.955,20.198,11.892,20.262,11.892,20.339z M13.682,14.343l4.412,4.356
	l-0.161,0.562l-4.57-4.599L13.682,14.343z M18.31,18.517l-4.429-4.372l0.685-0.685l4.39,4.401v0.656H18.31z M19.131,17.638
	l-4.367-4.377l0.292-0.292l4.56,4.559L19.131,17.638z M18.358,18.799h0.737c0.078,0,0.141-0.064,0.141-0.142v-0.754l0.565-0.129
	l0.765,2.354l-2.387-0.712L18.358,18.799z M12.173,13.4c0-0.042,0.017-0.081,0.047-0.111l1.472-1.472
	c0.061-0.061,0.16-0.062,0.222,0l0.949,0.948l-1.694,1.694L12.22,13.51C12.19,13.481,12.173,13.442,12.173,13.4z"/>
</svg>
