<?xml version="1.0" encoding="utf-8"?>
<!-- Generator: Adobe Illustrator 16.0.0, SVG Export Plug-In . SVG Version: 6.00 Build 0)  -->
<!DOCTYPE svg PUBLIC "-//W3C//DTD SVG 1.1//EN" "http://www.w3.org/Graphics/SVG/1.1/DTD/svg11.dtd">
<svg version="1.1" id="Capa_1" xmlns="http://www.w3.org/2000/svg" xmlns:xlink="http://www.w3.org/1999/xlink" x="0px" y="0px"
	 width="32px" height="32px" viewBox="0 0 32 32" enable-background="new 0 0 32 32" xml:space="preserve">
<title>pencil</title>
<path d="M0,31.479c0,0.276,0.224,0.5,0.5,0.5h31.111c0.066,0,0.132-0.013,0.193-0.039c0.061-0.025,0.115-0.062,0.161-0.108
	c0.001-0.001,0.002-0.001,0.003-0.002c0.004-0.003,0.004-0.009,0.008-0.013c0.051-0.055,0.084-0.121,0.106-0.194
	c0.007-0.022,0.01-0.045,0.015-0.069c0.004-0.025,0.014-0.047,0.014-0.072c0-0.041-0.014-0.075-0.022-0.112
	c-0.003-0.015,0.003-0.028-0.002-0.042l-3.159-9.715c-0.025-0.075-0.066-0.145-0.123-0.199L11.688,4.294
	c-0.018-0.028-0.031-0.058-0.055-0.083L7.894,0.472c-0.607-0.607-1.595-0.607-2.203,0L0.456,5.707C0.162,6.001,0,6.392,0,6.808
	S0.162,7.616,0.456,7.91l3.656,3.656c0.018,0.027,0.03,0.058,0.054,0.082l17.09,17.206c0.059,0.06,0.131,0.103,0.212,0.127l6.714,2
	H0.5C0.224,30.979,0,31.203,0,31.479z M6.362,10.161l15.687,15.485l-0.576,2.002L5.227,11.296L6.362,10.161z M22.816,25L7.068,9.455
	l2.437-2.437l15.606,15.648V25H22.816z M25.734,21.875L10.212,6.311l1.039-1.039l16.211,16.21L25.734,21.875z M22.988,26h2.623
	c0.277,0,0.5-0.225,0.5-0.5v-2.686l2.008-0.455l2.723,8.369L22.354,28.2L22.988,26z M1,6.808C1,6.659,1.058,6.52,1.163,6.414
	l5.235-5.235c0.217-0.217,0.57-0.218,0.789,0l3.372,3.372l-6.023,6.023L1.164,7.202C1.058,7.097,1,6.957,1,6.808z"/>
</svg>
