<?xml version="1.0" encoding="utf-8"?>
<!-- Generator: Adobe Illustrator 16.0.0, SVG Export Plug-In . SVG Version: 6.00 Build 0)  -->
<!DOCTYPE svg PUBLIC "-//W3C//DTD SVG 1.1//EN" "http://www.w3.org/Graphics/SVG/1.1/DTD/svg11.dtd">
<svg version="1.1" id="Capa_1" xmlns="http://www.w3.org/2000/svg" xmlns:xlink="http://www.w3.org/1999/xlink" x="0px" y="0px"
	 width="32px" height="32px" viewBox="0 0 32 32" enable-background="new 0 0 32 32" xml:space="preserve">
<polygon fill="#00CCCC" points="16,0 15.959,15.955 15.938,32 32,32 32,0 "/>
<circle fill="#FFFFFF" cx="15.959" cy="15.955" r="14.375"/>
<circle fill="#F6FAF9" cx="15.959" cy="15.954" r="13.306"/>
<path d="M11.464,18.532h4.928v0.423c0,0.078,0.063,0.141,0.14,0.141c0.078,0,0.141-0.062,0.141-0.141v-0.423h4.926
	c0.232,0,0.424-0.188,0.424-0.421v-6.194c0-0.232-0.189-0.422-0.424-0.422H11.464c-0.232,0-0.422,0.189-0.422,0.422v6.194
	C11.042,18.344,11.233,18.532,11.464,18.532z M11.324,11.917c0-0.078,0.063-0.141,0.14-0.141h10.134
	c0.078,0,0.141,0.063,0.141,0.141v6.194c0,0.076-0.063,0.139-0.141,0.139H11.464c-0.077,0-0.14-0.064-0.14-0.139V11.917z
	 M12.027,17.688h9.008c0.076,0,0.141-0.062,0.141-0.142v-5.067c0-0.079-0.064-0.141-0.141-0.141h-9.008
	c-0.078,0-0.141,0.064-0.141,0.141v5.067C11.886,17.625,11.949,17.688,12.027,17.688z M12.168,12.621h8.727v4.787h-8.727V12.621z
	 M14.983,19.375c-0.32,0-0.562,0.244-0.562,0.564v0.424c0,0.076,0.063,0.141,0.141,0.141h3.941c0.079,0,0.14-0.064,0.14-0.141
	v-0.402c0-0.326-0.246-0.586-0.562-0.586H14.983L14.983,19.375z M18.361,19.96v0.261h-3.659v-0.279c0-0.168,0.115-0.281,0.279-0.281
	h3.096C18.24,19.659,18.361,19.787,18.361,19.96z"/>
</svg>
