<?xml version="1.0" encoding="utf-8"?>
<!-- Generator: Adobe Illustrator 16.0.0, SVG Export Plug-In . SVG Version: 6.00 Build 0)  -->
<!DOCTYPE svg PUBLIC "-//W3C//DTD SVG 1.1//EN" "http://www.w3.org/Graphics/SVG/1.1/DTD/svg11.dtd">
<svg version="1.1" id="Capa_1" xmlns="http://www.w3.org/2000/svg" xmlns:xlink="http://www.w3.org/1999/xlink" x="0px" y="0px"
	 width="32px" height="32px" viewBox="0 0 32 32" enable-background="new 0 0 32 32" xml:space="preserve">
<polygon fill="#00CCCC" points="16,0 15.959,15.955 0,16 0,32 32,32 32,0 "/>
<circle fill="#FFFFFF" cx="15.959" cy="15.955" r="14.375"/>
<circle fill="#F6FAF9" cx="15.959" cy="15.954" r="13.306"/>
<path d="M16.535,13.2c0.078,0,0.142-0.063,0.142-0.142v-0.424h0.138c0.077,0,0.143-0.063,0.143-0.141v-0.848
	c0-0.078-0.064-0.141-0.143-0.141H16.25c-0.078,0-0.143,0.063-0.143,0.141v0.848c0,0.078,0.064,0.141,0.143,0.141h0.145v0.424
	C16.395,13.137,16.458,13.2,16.535,13.2z M16.391,11.788h0.283v0.565h-0.283V11.788z M13.359,20.493
	c0.021,0.012,0.043,0.017,0.066,0.017c0.051,0,0.1-0.026,0.125-0.076l1.212-2.309c0.544,0.272,1.146,0.421,1.773,0.421
	c0.625,0,1.228-0.146,1.77-0.419l1.209,2.307c0.025,0.05,0.075,0.076,0.125,0.076c0.021,0,0.044-0.005,0.064-0.017
	c0.068-0.035,0.098-0.123,0.061-0.19l-1.211-2.312c0.279-0.168,0.543-0.365,0.777-0.602c0.277-0.275,0.277-0.725,0-1
	c-0.267-0.266-0.731-0.266-0.996,0c-0.135,0.135-0.281,0.249-0.438,0.348l-0.665-1.271c0.258-0.205,0.428-0.52,0.428-0.873
	c0-0.619-0.504-1.122-1.123-1.122s-1.123,0.503-1.123,1.123c0,0.354,0.168,0.667,0.426,0.873l-0.668,1.271
	c-0.154-0.099-0.3-0.213-0.433-0.346c-0.267-0.267-0.733-0.267-0.999,0c-0.276,0.275-0.276,0.723,0,0.999
	c0.235,0.234,0.497,0.433,0.776,0.599l-1.216,2.313C13.264,20.372,13.29,20.458,13.359,20.493z M14.239,16.467
	c0.113,0,0.221,0.044,0.3,0.124c0.533,0.533,1.243,0.825,1.997,0.825c0.757,0,1.467-0.292,1.998-0.825c0.162-0.16,0.439-0.159,0.6,0
	c0.165,0.165,0.165,0.436,0,0.6c-0.691,0.692-1.615,1.073-2.598,1.073c-0.981,0-1.902-0.381-2.595-1.073
	c-0.165-0.164-0.165-0.435,0-0.6C14.02,16.511,14.126,16.467,14.239,16.467z M15.695,14.593c0-0.463,0.377-0.84,0.84-0.84
	c0.464,0,0.84,0.377,0.84,0.84s-0.376,0.839-0.84,0.839C16.072,15.433,15.695,15.056,15.695,14.593z M16.08,15.616
	c0.14,0.062,0.293,0.099,0.455,0.099c0.164,0,0.316-0.036,0.455-0.099l0.66,1.26c-0.343,0.167-0.721,0.259-1.115,0.259
	c-0.394,0-0.771-0.092-1.115-0.261L16.08,15.616z"/>
</svg>
