<?xml version="1.0" encoding="utf-8"?>
<!-- Generator: Adobe Illustrator 16.0.0, SVG Export Plug-In . SVG Version: 6.00 Build 0)  -->
<!DOCTYPE svg PUBLIC "-//W3C//DTD SVG 1.1//EN" "http://www.w3.org/Graphics/SVG/1.1/DTD/svg11.dtd">
<svg version="1.1" id="Capa_1" xmlns="http://www.w3.org/2000/svg" xmlns:xlink="http://www.w3.org/1999/xlink" x="0px" y="0px"
	 width="32px" height="32px" viewBox="0 0 32 32" enable-background="new 0 0 32 32" xml:space="preserve">
<rect width="32" height="32"/>
<path fill="#FFFFFF" d="M4.501,21.709H15.68v0.959c0,0.176,0.144,0.318,0.32,0.318c0.176,0,0.318-0.143,0.318-0.318v-0.959h11.179
	c0.528,0,0.96-0.43,0.96-0.957V6.697c0-0.528-0.432-0.958-0.96-0.958H4.501c-0.529,0-0.958,0.43-0.958,0.958v14.055
	C3.543,21.279,3.973,21.709,4.501,21.709z M4.182,6.697c0-0.176,0.143-0.319,0.319-0.319h22.996c0.178,0,0.32,0.143,0.32,0.319
	v14.055c0,0.174-0.145,0.316-0.32,0.316H4.501c-0.176,0-0.319-0.143-0.319-0.316V6.697z M5.778,19.793H26.22
	c0.176,0,0.319-0.145,0.319-0.318v-11.5c0-0.177-0.144-0.319-0.319-0.319H5.778c-0.176,0-0.319,0.143-0.319,0.319v11.499
	C5.459,19.648,5.603,19.793,5.778,19.793z M6.098,8.294H25.9v10.86H6.098V8.294z M12.487,23.625c-0.729,0-1.279,0.549-1.279,1.277
	v0.959c0,0.176,0.145,0.32,0.32,0.32h8.944c0.176,0,0.319-0.145,0.319-0.32v-0.91c0-0.742-0.562-1.326-1.278-1.326H12.487
	L12.487,23.625z M20.152,24.949v0.592h-8.305v-0.639c0-0.375,0.262-0.639,0.638-0.639h7.027
	C19.878,24.264,20.152,24.559,20.152,24.949z"/>
</svg>
