<?xml version="1.0" encoding="utf-8"?>
<!-- Generator: Adobe Illustrator 16.0.0, SVG Export Plug-In . SVG Version: 6.00 Build 0)  -->
<!DOCTYPE svg PUBLIC "-//W3C//DTD SVG 1.1//EN" "http://www.w3.org/Graphics/SVG/1.1/DTD/svg11.dtd">
<svg version="1.1" id="Capa_1" xmlns="http://www.w3.org/2000/svg" xmlns:xlink="http://www.w3.org/1999/xlink" x="0px" y="0px"
	 width="32px" height="32px" viewBox="0 0 32 32" enable-background="new 0 0 32 32" xml:space="preserve">
<title>pencil</title>
<path d="M1.29,23.677h14.32v1.227c0,0.227,0.184,0.41,0.409,0.41s0.409-0.184,0.409-0.41v-1.227h14.32
	c0.677,0,1.228-0.551,1.228-1.227V4.447c0-0.676-0.551-1.227-1.228-1.227H1.29c-0.677,0-1.228,0.551-1.228,1.227V22.45
	C0.062,23.126,0.613,23.677,1.29,23.677z M0.881,4.447c0-0.225,0.183-0.409,0.409-0.409h29.458c0.226,0,0.409,0.184,0.409,0.409
	V22.45c0,0.225-0.184,0.408-0.409,0.408H1.29c-0.226,0-0.409-0.184-0.409-0.408V4.447z M2.926,21.222h26.185
	c0.226,0,0.409-0.184,0.409-0.408V6.083c0-0.226-0.184-0.409-0.409-0.409H2.926c-0.226,0-0.409,0.183-0.409,0.409v14.73
	C2.517,21.038,2.701,21.222,2.926,21.222z M3.335,6.493h25.367v13.911H3.335V6.493z M11.519,26.132
	c-0.933,0-1.637,0.703-1.637,1.637v1.227c0,0.227,0.184,0.41,0.409,0.41h11.456c0.226,0,0.409-0.184,0.409-0.41v-1.166
	c0-0.951-0.718-1.697-1.637-1.697H11.519z M21.338,27.829v0.758H10.7v-0.818c0-0.482,0.336-0.818,0.818-0.818h9.001
	C20.986,26.95,21.338,27.327,21.338,27.829z"/>
</svg>
