<?xml version="1.0" encoding="utf-8"?>
<!-- Generator: Adobe Illustrator 16.0.0, SVG Export Plug-In . SVG Version: 6.00 Build 0)  -->
<!DOCTYPE svg PUBLIC "-//W3C//DTD SVG 1.1//EN" "http://www.w3.org/Graphics/SVG/1.1/DTD/svg11.dtd">
<svg version="1.1" id="Capa_1" xmlns="http://www.w3.org/2000/svg" xmlns:xlink="http://www.w3.org/1999/xlink" x="0px" y="0px"
	 width="32px" height="32px" viewBox="0 0 32 32" enable-background="new 0 0 32 32" xml:space="preserve">
<rect width="32" height="32"/>
<path fill="#FFFFFF" d="M16.441,13.151c0.078,0,0.142-0.064,0.142-0.142v-0.424h0.138c0.077,0,0.142-0.063,0.142-0.141v-0.848
	c0-0.078-0.064-0.141-0.142-0.141h-0.565c-0.078,0-0.142,0.063-0.142,0.141v0.848c0,0.078,0.064,0.141,0.142,0.141h0.145v0.424
	C16.301,13.087,16.364,13.151,16.441,13.151z M16.297,11.738h0.283v0.565h-0.283V11.738z M13.265,20.443
	c0.021,0.012,0.043,0.017,0.066,0.017c0.051,0,0.1-0.027,0.125-0.076l1.212-2.309c0.544,0.273,1.146,0.421,1.773,0.421
	c0.625,0,1.228-0.146,1.77-0.419l1.209,2.307c0.026,0.049,0.075,0.076,0.125,0.076c0.021,0,0.044-0.005,0.064-0.017
	c0.069-0.035,0.098-0.122,0.061-0.19l-1.211-2.312c0.279-0.167,0.543-0.365,0.778-0.601c0.277-0.276,0.277-0.725,0-1
	c-0.267-0.266-0.732-0.266-0.997,0c-0.135,0.134-0.281,0.249-0.438,0.347l-0.665-1.271c0.257-0.205,0.427-0.519,0.427-0.873
	c0-0.619-0.504-1.122-1.123-1.122s-1.122,0.503-1.122,1.123c0,0.354,0.168,0.667,0.426,0.873l-0.668,1.271
	c-0.154-0.099-0.3-0.213-0.433-0.346c-0.267-0.267-0.733-0.267-0.999,0c-0.276,0.275-0.276,0.722,0,0.999
	c0.235,0.234,0.497,0.432,0.776,0.599l-1.216,2.313C13.17,20.322,13.196,20.408,13.265,20.443z M14.145,16.417
	c0.113,0,0.221,0.044,0.3,0.124c0.533,0.533,1.242,0.825,1.997,0.825c0.756,0,1.466-0.292,1.998-0.825
	c0.161-0.16,0.439-0.159,0.599,0c0.165,0.165,0.165,0.436,0,0.599c-0.692,0.693-1.615,1.074-2.597,1.074s-1.903-0.381-2.596-1.074
	c-0.165-0.163-0.165-0.434,0-0.599C13.926,16.461,14.032,16.417,14.145,16.417z M15.602,14.543c0-0.463,0.377-0.84,0.839-0.84
	c0.464,0,0.84,0.377,0.84,0.84s-0.376,0.839-0.84,0.839C15.979,15.383,15.602,15.006,15.602,14.543z M15.986,15.566
	c0.14,0.062,0.293,0.099,0.456,0.099c0.164,0,0.316-0.036,0.455-0.098l0.66,1.259c-0.343,0.167-0.721,0.259-1.115,0.259
	c-0.394,0-0.772-0.092-1.116-0.261L15.986,15.566z"/>
</svg>
