<?xml version="1.0" encoding="utf-8"?>
<!-- Generator: Adobe Illustrator 16.0.0, SVG Export Plug-In . SVG Version: 6.00 Build 0)  -->
<!DOCTYPE svg PUBLIC "-//W3C//DTD SVG 1.1//EN" "http://www.w3.org/Graphics/SVG/1.1/DTD/svg11.dtd">
<svg version="1.1" id="Capa_1" xmlns="http://www.w3.org/2000/svg" xmlns:xlink="http://www.w3.org/1999/xlink" x="0px" y="0px"
	 width="32px" height="32px" viewBox="0 0 32 32" enable-background="new 0 0 32 32" xml:space="preserve">
<polygon fill="#00CCCC" points="16,0 15.959,15.955 0,16 0,32 32,32 32,0 "/>
<circle fill="#FFFFFF" cx="15.959" cy="15.955" r="14.375"/>
<circle fill="#F6FAF9" cx="15.959" cy="15.954" r="13.306"/>
<path d="M11.892,20.339c0,0.079,0.063,0.142,0.142,0.142h8.809c0.019,0,0.037-0.004,0.056-0.011c0.018-0.008,0.031-0.018,0.045-0.03
	l0,0c0.002-0.002,0.002-0.004,0.004-0.004c0.015-0.016,0.022-0.035,0.029-0.056c0.002-0.006,0.002-0.013,0.004-0.021
	c0.002-0.006,0.004-0.014,0.004-0.02c0-0.012-0.004-0.021-0.006-0.031c0-0.004,0-0.009,0-0.014l-0.896-2.75
	c-0.008-0.021-0.019-0.042-0.035-0.057l-4.846-4.847c-0.006-0.008-0.009-0.017-0.016-0.024l-1.058-1.059
	c-0.172-0.172-0.452-0.172-0.624,0l-1.482,1.482c-0.083,0.083-0.129,0.194-0.129,0.312c0,0.117,0.046,0.229,0.129,0.312l1.035,1.035
	c0.005,0.008,0.009,0.016,0.015,0.023l4.839,4.872c0.017,0.018,0.037,0.029,0.06,0.036l1.901,0.565h-7.838
	C11.955,20.198,11.892,20.262,11.892,20.339z M13.693,14.304l4.442,4.383l-0.164,0.567l-4.599-4.63L13.693,14.304z M18.354,18.505
	l-4.46-4.401l0.69-0.69l4.418,4.43v0.661H18.354z M19.178,17.619l-4.395-4.406l0.295-0.294l4.589,4.589L19.178,17.619z M18.4,18.788
	h0.742c0.078,0,0.143-0.063,0.143-0.142v-0.762l0.568-0.128l0.771,2.368l-2.403-0.715L18.4,18.788z M12.175,13.354
	c0-0.042,0.017-0.082,0.046-0.112l1.482-1.482c0.062-0.062,0.161-0.062,0.223,0l0.955,0.955l-1.706,1.706l-0.955-0.955
	C12.191,13.436,12.175,13.396,12.175,13.354z"/>
</svg>
